<svg width="21" height="21" viewBox="0 0 21 21" fill="none" xmlns="http://www.w3.org/2000/svg">
<path d="M7.50002 19.3332C7.96026 19.3332 8.33335 18.9601 8.33335 18.4998C8.33335 18.0396 7.96026 17.6665 7.50002 17.6665C7.03978 17.6665 6.66669 18.0396 6.66669 18.4998C6.66669 18.9601 7.03978 19.3332 7.50002 19.3332Z" stroke="#A0A4A8" stroke-width="2" stroke-linecap="round" stroke-linejoin="round"/>
<path d="M16.6666 19.3332C17.1269 19.3332 17.5 18.9601 17.5 18.4998C17.5 18.0396 17.1269 17.6665 16.6666 17.6665C16.2064 17.6665 15.8333 18.0396 15.8333 18.4998C15.8333 18.9601 16.2064 19.3332 16.6666 19.3332Z" stroke="#A0A4A8" stroke-width="2" stroke-linecap="round" stroke-linejoin="round"/>
<path d="M0.833313 1.8335H4.16665L6.39998 12.9918C6.47618 13.3755 6.6849 13.7201 6.9896 13.9654C7.2943 14.2107 7.67556 14.341 8.06665 14.3335H16.1666C16.5577 14.341 16.939 14.2107 17.2437 13.9654C17.5484 13.7201 17.7571 13.3755 17.8333 12.9918L19.1666 6.00016H4.99998" stroke="#A0A4A8" stroke-width="2" stroke-linecap="round" stroke-linejoin="round"/>
</svg>
